<svg width="120" height="40" viewBox="0 0 120 40" fill="none" xmlns="http://www.w3.org/2000/svg">
<g id="App Store - Filled">
<g id="Group">
<g id="Group_2">
<path id="Vector" d="M110.135 -0.000114141H9.53468C9.16798 -0.000114141 8.80568 -0.000114141 8.43995 0.00188586C8.1338 0.00388586 7.83009 0.00969586 7.521 0.0145859C6.84951 0.0224877 6.17961 0.0815621 5.5171 0.191296C4.85552 0.303418 4.21467 0.514802 3.61622 0.818296C3.0185 1.12436 2.47235 1.52205 1.99757 1.99696C1.5203 2.47052 1.12246 3.0179 0.81935 3.61805C0.5154 4.21699 0.304641 4.85882 0.19435 5.52137C0.0830109 6.18307 0.0230984 6.85241 0.01515 7.52337C0.00587 7.82997 0.00489 8.13759 0 8.44423V31.5585C0.00489 31.869 0.00587 32.1698 0.01515 32.4804C0.0231008 33.1513 0.0830134 33.8206 0.19435 34.4823C0.304336 35.1452 0.515108 35.7874 0.81935 36.3866C1.12233 36.9848 1.52022 37.53 1.99757 38.0009C2.47054 38.4779 3.01705 38.8759 3.61622 39.1796C4.21467 39.4839 4.85545 39.6965 5.5171 39.8104C6.17972 39.9192 6.84956 39.9783 7.521 39.9872C7.83009 39.994 8.1338 39.9979 8.43995 39.9979C8.80567 39.9999 9.168 39.9999 9.53468 39.9999H110.135C110.494 39.9999 110.859 39.9999 111.219 39.9979C111.523 39.9979 111.836 39.994 112.141 39.9872C112.811 39.9788 113.479 39.9197 114.141 39.8104C114.804 39.6957 115.448 39.4831 116.049 39.1796C116.647 38.8757 117.193 38.4777 117.666 38.0009C118.142 37.5281 118.541 36.9833 118.848 36.3866C119.15 35.787 119.358 35.1448 119.467 34.4823C119.578 33.8205 119.64 33.1514 119.652 32.4804C119.656 32.1698 119.656 31.869 119.656 31.5585C119.664 31.1952 119.664 30.8339 119.664 30.4647V9.53602C119.664 9.16981 119.664 8.80653 119.656 8.44423C119.656 8.13759 119.656 7.82997 119.652 7.52333C119.64 6.85231 119.578 6.18312 119.467 5.52133C119.358 4.85917 119.149 4.21739 118.848 3.61801C118.23 2.41508 117.252 1.43591 116.049 0.818206C115.448 0.515453 114.804 0.304126 114.141 0.191206C113.48 0.0809886 112.811 0.0218936 112.141 0.0144459C111.836 0.00956586 111.523 0.00370586 111.219 0.00175586C110.859 -0.000244141 110.494 -0.000244141 110.135 -0.000244141V-0.000114141Z" fill="#A6A6A6"/>
<path id="Vector_2" d="M8.44483 39.1249C8.14015 39.1249 7.84283 39.121 7.54054 39.1142C6.91432 39.106 6.28957 39.0515 5.6714 38.9511C5.09499 38.8518 4.5366 38.6671 4.01466 38.4032C3.4975 38.1414 3.02581 37.7981 2.61766 37.3866C2.2036 36.9799 1.85888 36.5081 1.59715 35.9901C1.33254 35.4687 1.14941 34.9098 1.05415 34.3329C0.951273 33.713 0.895613 33.0862 0.887649 32.4579C0.881309 32.247 0.873009 31.5448 0.873009 31.5448V8.44422C0.873009 8.44422 0.881849 7.75281 0.887699 7.54968C0.895325 6.92236 0.950661 6.29653 1.05323 5.67761C1.14867 5.09913 1.33194 4.53863 1.59669 4.01551C1.85745 3.49782 2.20026 3.02574 2.61183 2.61756C3.02293 2.2055 3.49613 1.86048 4.01417 1.59509C4.53491 1.33197 5.09224 1.14861 5.66749 1.05115C6.28769 0.949714 6.91461 0.894874 7.543 0.887088L8.44532 0.874878H111.214L112.127 0.887578C112.75 0.894977 113.371 0.949328 113.985 1.05017C114.566 1.14885 115.13 1.33349 115.656 1.59802C116.694 2.13286 117.539 2.97904 118.071 4.01795C118.332 4.53746 118.512 5.09338 118.606 5.66687C118.71 6.29087 118.768 6.92162 118.78 7.55408C118.783 7.83728 118.783 8.14148 118.783 8.44422C118.791 8.81922 118.791 9.17615 118.791 9.53601V30.4647C118.791 30.828 118.791 31.1825 118.783 31.5399C118.783 31.8651 118.783 32.163 118.779 32.4696C118.768 33.0908 118.71 33.7102 118.608 34.3231C118.515 34.9041 118.333 35.4674 118.068 35.9931C117.805 36.5055 117.462 36.9731 117.053 37.3788C116.644 37.7926 116.172 38.1378 115.653 38.4013C115.128 38.6673 114.566 38.8526 113.985 38.9511C113.367 39.052 112.742 39.1066 112.116 39.1142C111.823 39.121 111.517 39.1249 111.219 39.1249L110.135 39.1269L8.44483 39.1249Z" fill="black"/>
</g>
<g id="&#60;Group&#62;">
<g id="&#60;Group&#62;_2">
<g id="&#60;Group&#62;_3">
<path id="&#60;Path&#62;" d="M24.7689 20.3009C24.7796 19.4663 25.0013 18.6479 25.4134 17.9219C25.8254 17.196 26.4143 16.5861 27.1254 16.1489C26.6737 15.5037 26.0777 14.9728 25.3849 14.5982C24.6921 14.2237 23.9215 14.0158 23.1343 13.9912C21.455 13.8149 19.8271 14.996 18.9714 14.996C18.0991 14.996 16.7816 14.0087 15.3629 14.0379C14.4452 14.0675 13.5509 14.3344 12.767 14.8124C11.9831 15.2905 11.3364 15.9635 10.89 16.7658C8.95595 20.1142 10.3985 25.0352 12.2511 27.7418C13.178 29.0672 14.2613 30.5476 15.6788 30.4951C17.0658 30.4376 17.5839 29.6107 19.2582 29.6107C20.9169 29.6107 21.403 30.4951 22.8492 30.4618C24.3376 30.4376 25.2753 29.1305 26.1697 27.7926C26.8357 26.8483 27.3481 25.8045 27.6881 24.7001C26.8234 24.3344 26.0855 23.7222 25.5664 22.9399C25.0472 22.1576 24.7699 21.2398 24.7689 20.3009Z" fill="white"/>
<path id="&#60;Path&#62;_2" d="M22.0372 12.2112C22.8488 11.237 23.2486 9.98481 23.1518 8.72058C21.9119 8.8508 20.7667 9.44336 19.9442 10.3802C19.542 10.8379 19.234 11.3703 19.0378 11.9471C18.8415 12.5238 18.7609 13.1336 18.8005 13.7416C19.4206 13.748 20.0341 13.6136 20.5948 13.3485C21.1554 13.0834 21.6486 12.6945 22.0372 12.2112Z" fill="white"/>
</g>
</g>
<g id="Group_3">
<path id="Vector_3" d="M42.3022 27.1396H37.5688L36.4321 30.496H34.4272L38.9106 18.078H40.9936L45.477 30.496H43.438L42.3022 27.1396ZM38.0591 25.5907H41.8111L39.9615 20.1435H39.9097L38.0591 25.5907Z" fill="white"/>
<path id="Vector_4" d="M55.1597 25.9693C55.1597 28.7828 53.6538 30.5904 51.3813 30.5904C50.8057 30.6205 50.2332 30.4879 49.7294 30.2078C49.2256 29.9277 48.8109 29.5113 48.5327 29.0064H48.4897V33.4908H46.6313V21.442H48.4302V22.9478H48.4644C48.7553 22.4454 49.177 22.0312 49.6847 21.7493C50.1923 21.4675 50.7668 21.3285 51.3472 21.3473C53.645 21.3473 55.1597 23.1637 55.1597 25.9693ZM53.2495 25.9693C53.2495 24.1363 52.3022 22.9312 50.8569 22.9312C49.437 22.9312 48.4819 24.1617 48.4819 25.9693C48.4819 27.7935 49.437 29.0152 50.8569 29.0152C52.3022 29.0152 53.2495 27.8189 53.2495 25.9693Z" fill="white"/>
<path id="Vector_5" d="M65.1245 25.9693C65.1245 28.7828 63.6187 30.5904 61.3462 30.5904C60.7705 30.6205 60.198 30.4879 59.6942 30.2078C59.1905 29.9276 58.7757 29.5113 58.4976 29.0064H58.4546V33.4908H56.5962V21.442H58.395V22.9478H58.4292C58.7201 22.4454 59.1418 22.0312 59.6495 21.7493C60.1571 21.4675 60.7317 21.3285 61.312 21.3473C63.6099 21.3473 65.1245 23.1637 65.1245 25.9693ZM63.2144 25.9693C63.2144 24.1363 62.2671 22.9312 60.8218 22.9312C59.4018 22.9312 58.4468 24.1617 58.4468 25.9693C58.4468 27.7935 59.4018 29.0152 60.8218 29.0152C62.2671 29.0152 63.2144 27.8189 63.2144 25.9693H63.2144Z" fill="white"/>
<path id="Vector_6" d="M71.7104 27.0361C71.8481 28.2675 73.0444 29.0761 74.6792 29.0761C76.2456 29.0761 77.3726 28.2675 77.3726 27.1571C77.3726 26.1932 76.6929 25.6161 75.0835 25.2206L73.4741 24.8329C71.1939 24.2821 70.1353 23.2157 70.1353 21.4852C70.1353 19.3427 72.0024 17.871 74.6538 17.871C77.2778 17.871 79.0767 19.3427 79.1372 21.4852H77.2612C77.1489 20.246 76.1245 19.4979 74.6274 19.4979C73.1303 19.4979 72.1059 20.2548 72.1059 21.3563C72.1059 22.2343 72.7602 22.7509 74.3608 23.1463L75.729 23.4823C78.2768 24.0848 79.3354 25.1083 79.3354 26.9247C79.3354 29.2479 77.4848 30.703 74.5415 30.703C71.7876 30.703 69.9282 29.2821 69.8081 27.036L71.7104 27.0361Z" fill="white"/>
<path id="Vector_7" d="M83.3462 19.2997V21.4423H85.0679V22.9139H83.3462V27.9052C83.3462 28.6805 83.6909 29.0419 84.4477 29.0419C84.6521 29.0383 84.8562 29.024 85.0591 28.9989V30.4618C84.7188 30.5253 84.3729 30.5541 84.0268 30.5477C82.1938 30.5477 81.479 29.8592 81.479 28.1034V22.9139H80.1626V21.4423H81.479V19.2997H83.3462Z" fill="white"/>
<path id="Vector_8" d="M86.065 25.9696C86.065 23.121 87.7427 21.3309 90.3589 21.3309C92.9839 21.3309 94.6538 23.1209 94.6538 25.9696C94.6538 28.8261 92.9927 30.6083 90.3589 30.6083C87.7261 30.6083 86.065 28.826 86.065 25.9696ZM92.7603 25.9696C92.7603 24.0155 91.8648 22.8622 90.3589 22.8622C88.853 22.8622 87.9585 24.0243 87.9585 25.9696C87.9585 27.9315 88.853 29.0761 90.3589 29.0761C91.8648 29.0761 92.7602 27.9315 92.7602 25.9696H92.7603Z" fill="white"/>
<path id="Vector_9" d="M96.186 21.4419H97.9585V22.9829H98.0015C98.1214 22.5016 98.4034 22.0763 98.8 21.7784C99.1966 21.4805 99.6836 21.3282 100.179 21.3472C100.393 21.3464 100.607 21.3697 100.816 21.4165V23.1548C100.546 23.0722 100.264 23.0342 99.981 23.0425C99.711 23.0315 99.4418 23.0791 99.192 23.182C98.9421 23.2849 98.7175 23.4406 98.5335 23.6385C98.3496 23.8364 98.2106 24.0718 98.1262 24.3284C98.0417 24.5851 98.0139 24.857 98.0444 25.1255V30.4956H96.186L96.186 21.4419Z" fill="white"/>
<path id="Vector_10" d="M109.384 27.8368C109.134 29.4803 107.534 30.6083 105.486 30.6083C102.852 30.6083 101.217 28.8436 101.217 26.0126C101.217 23.1727 102.861 21.3309 105.408 21.3309C107.913 21.3309 109.488 23.0516 109.488 25.7968V26.4335H103.093V26.5458C103.064 26.879 103.105 27.2146 103.216 27.5305C103.326 27.8463 103.502 28.1351 103.732 28.3777C103.963 28.6202 104.242 28.811 104.552 28.9373C104.861 29.0636 105.195 29.1225 105.529 29.1102C105.968 29.1514 106.409 29.0497 106.785 28.8202C107.162 28.5908 107.455 28.2459 107.62 27.8368L109.384 27.8368ZM103.102 25.1346H107.628C107.645 24.835 107.6 24.5352 107.495 24.254C107.39 23.9728 107.229 23.7163 107.02 23.5005C106.812 23.2847 106.561 23.1144 106.283 23.0002C106.006 22.886 105.708 22.8303 105.408 22.8368C105.105 22.835 104.805 22.8931 104.525 23.0079C104.245 23.1226 103.99 23.2917 103.776 23.5053C103.562 23.7189 103.392 23.9729 103.276 24.2526C103.16 24.5322 103.101 24.832 103.102 25.1347V25.1346Z" fill="white"/>
</g>
</g>
</g>
<g id="&#60;Group&#62;_4">
<g id="Group_4">
<path id="Vector_11" d="M37.8262 8.7304C38.2158 8.70244 38.6067 8.7613 38.9709 8.90274C39.335 9.04417 39.6632 9.26465 39.9317 9.54828C40.2003 9.8319 40.4026 10.1716 40.524 10.5429C40.6454 10.9141 40.6829 11.3077 40.6338 11.6952C40.6338 13.6015 39.6035 14.6972 37.8262 14.6972H35.6709V8.7304H37.8262ZM36.5976 13.8534H37.7226C38.0011 13.87 38.2797 13.8244 38.5382 13.7198C38.7967 13.6152 39.0287 13.4542 39.2172 13.2487C39.4057 13.0431 39.546 12.7981 39.6278 12.5315C39.7097 12.2648 39.7311 11.9833 39.6904 11.7074C39.7281 11.4326 39.7046 11.1528 39.6215 10.8881C39.5383 10.6235 39.3977 10.3805 39.2096 10.1765C39.0216 9.97261 38.7907 9.8128 38.5337 9.70856C38.2766 9.60433 37.9996 9.55824 37.7226 9.57361H36.5976V13.8534Z" fill="white"/>
<path id="Vector_12" d="M41.6807 12.4438C41.6523 12.1479 41.6862 11.8493 41.78 11.5672C41.8739 11.2852 42.0256 11.0258 42.2256 10.8059C42.4255 10.5859 42.6692 10.4101 42.9411 10.2898C43.2129 10.1696 43.5069 10.1074 43.8042 10.1074C44.1015 10.1074 44.3954 10.1696 44.6673 10.2898C44.9391 10.4101 45.1829 10.5859 45.3828 10.8059C45.5827 11.0258 45.7345 11.2852 45.8283 11.5672C45.9222 11.8493 45.956 12.1479 45.9277 12.4438C45.9566 12.74 45.9231 13.039 45.8295 13.3215C45.7359 13.6041 45.5843 13.8639 45.3843 14.0843C45.1843 14.3047 44.9404 14.4808 44.6683 14.6014C44.3961 14.7219 44.1018 14.7842 43.8042 14.7842C43.5066 14.7842 43.2122 14.7219 42.9401 14.6014C42.668 14.4808 42.4241 14.3047 42.2241 14.0843C42.0241 13.8639 41.8724 13.6041 41.7788 13.3215C41.6853 13.039 41.6518 12.74 41.6807 12.4438ZM45.0137 12.4438C45.0137 11.4677 44.5752 10.8969 43.8057 10.8969C43.0332 10.8969 42.5987 11.4677 42.5987 12.4438C42.5987 13.4277 43.0332 13.9941 43.8057 13.9941C44.5752 13.9941 45.0137 13.4238 45.0137 12.4438H45.0137Z" fill="white"/>
<path id="Vector_13" d="M51.5732 14.6971H50.6514L49.7207 11.3807H49.6504L48.7236 14.6971H47.8105L46.5693 10.1942H47.4707L48.2773 13.6302H48.3438L49.2695 10.1942H50.1221L51.0479 13.6302H51.1182L51.9209 10.1942H52.8096L51.5732 14.6971Z" fill="white"/>
<path id="Vector_14" d="M53.8535 10.1938H54.709V10.9091H54.7754C54.888 10.6522 55.0781 10.4368 55.3189 10.293C55.5598 10.1492 55.8395 10.0841 56.1191 10.1068C56.3382 10.0904 56.5582 10.1234 56.7628 10.2035C56.9674 10.2836 57.1514 10.4087 57.3011 10.5696C57.4508 10.7304 57.5623 10.9229 57.6275 11.1327C57.6927 11.3425 57.7099 11.5643 57.6777 11.7816V14.6966H56.7891V12.0048C56.7891 11.2812 56.4746 10.9213 55.8174 10.9213C55.6686 10.9144 55.5201 10.9397 55.3821 10.9955C55.244 11.0514 55.1197 11.1364 55.0175 11.2448C54.9154 11.3532 54.8379 11.4823 54.7904 11.6235C54.7429 11.7646 54.7264 11.9143 54.7422 12.0624V14.6967H53.8535L53.8535 10.1938Z" fill="white"/>
<path id="Vector_15" d="M59.0938 8.4364H59.9824V14.6971H59.0938V8.4364Z" fill="white"/>
<path id="Vector_16" d="M61.2178 12.4438C61.1895 12.1478 61.2234 11.8492 61.3172 11.5672C61.4111 11.2851 61.5629 11.0257 61.7628 10.8057C61.9628 10.5858 62.2065 10.41 62.4784 10.2897C62.7503 10.1694 63.0443 10.1073 63.3416 10.1073C63.6388 10.1073 63.9328 10.1694 64.2047 10.2897C64.4766 10.41 64.7203 10.5858 64.9203 10.8057C65.1202 11.0257 65.272 11.2851 65.3659 11.5672C65.4597 11.8492 65.4936 12.1478 65.4653 12.4438C65.4941 12.74 65.4607 13.039 65.367 13.3215C65.2734 13.604 65.1217 13.8638 64.9217 14.0842C64.7217 14.3047 64.4778 14.4808 64.2057 14.6013C63.9335 14.7218 63.6392 14.7841 63.3416 14.7841C63.0439 14.7841 62.7496 14.7218 62.4774 14.6013C62.2053 14.4808 61.9614 14.3047 61.7614 14.0842C61.5614 13.8638 61.4097 13.604 61.3161 13.3215C61.2224 13.039 61.189 12.74 61.2178 12.4438ZM64.5508 12.4438C64.5508 11.4677 64.1123 10.8969 63.3428 10.8969C62.5703 10.8969 62.1358 11.4677 62.1358 12.4438C62.1358 13.4277 62.5703 13.9941 63.3428 13.9941C64.1123 13.9941 64.5508 13.4237 64.5508 12.4438H64.5508Z" fill="white"/>
<path id="Vector_17" d="M66.4009 13.4237C66.4009 12.6132 67.0044 12.1459 68.0757 12.0795L69.2954 12.0092V11.6205C69.2954 11.1449 68.981 10.8763 68.3735 10.8763C67.8774 10.8763 67.5337 11.0585 67.4351 11.3768H66.5747C66.6655 10.6034 67.3931 10.1073 68.4146 10.1073C69.5435 10.1073 70.1802 10.6693 70.1802 11.6205V14.6971H69.3247V14.0643H69.2544C69.1117 14.2913 68.9113 14.4764 68.6737 14.6006C68.436 14.7248 68.1697 14.7837 67.9019 14.7713C67.7128 14.791 67.5218 14.7708 67.341 14.7121C67.1602 14.6534 66.9938 14.5575 66.8524 14.4305C66.711 14.3036 66.5977 14.1484 66.52 13.975C66.4422 13.8015 66.4016 13.6138 66.4009 13.4237ZM69.2954 13.0389V12.6625L68.1958 12.7328C67.5757 12.7743 67.2944 12.9852 67.2944 13.3822C67.2944 13.7875 67.646 14.0233 68.1294 14.0233C68.2711 14.0376 68.4142 14.0233 68.5502 13.9812C68.6862 13.9392 68.8123 13.8701 68.9211 13.7783C69.0299 13.6865 69.1191 13.5737 69.1834 13.4466C69.2477 13.3196 69.2858 13.181 69.2954 13.0389Z" fill="white"/>
<path id="Vector_18" d="M71.3481 12.4437C71.3481 11.0209 72.0796 10.1195 73.2173 10.1195C73.4987 10.1066 73.778 10.174 74.0225 10.3139C74.267 10.4537 74.4667 10.6604 74.5981 10.9095H74.6646V8.4364H75.5532V14.6971H74.7017V13.9857H74.6314C74.4897 14.2332 74.2831 14.4372 74.0339 14.5757C73.7846 14.7142 73.5022 14.7819 73.2173 14.7714C72.0718 14.7714 71.3481 13.87 71.3481 12.4437ZM72.2661 12.4437C72.2661 13.3988 72.7163 13.9735 73.4693 13.9735C74.2183 13.9735 74.6812 13.3905 74.6812 12.4477C74.6812 11.5092 74.2134 10.9179 73.4693 10.9179C72.7212 10.9179 72.2661 11.4965 72.2661 12.4437H72.2661Z" fill="white"/>
<path id="Vector_19" d="M79.23 12.4438C79.2017 12.1479 79.2355 11.8493 79.3294 11.5672C79.4232 11.2852 79.575 11.0258 79.7749 10.8059C79.9748 10.5859 80.2186 10.4101 80.4904 10.2898C80.7623 10.1696 81.0563 10.1074 81.3535 10.1074C81.6508 10.1074 81.9448 10.1696 82.2166 10.2898C82.4885 10.4101 82.7322 10.5859 82.9321 10.8059C83.1321 11.0258 83.2838 11.2852 83.3777 11.5672C83.4715 11.8493 83.5054 12.1479 83.4771 12.4438C83.5059 12.74 83.4725 13.039 83.3789 13.3215C83.2853 13.6041 83.1336 13.8639 82.9336 14.0843C82.7336 14.3047 82.4897 14.4808 82.2176 14.6014C81.9455 14.7219 81.6511 14.7842 81.3535 14.7842C81.0559 14.7842 80.7616 14.7219 80.4894 14.6014C80.2173 14.4808 79.9734 14.3047 79.7734 14.0843C79.5734 13.8639 79.4218 13.6041 79.3282 13.3215C79.2346 13.039 79.2011 12.74 79.23 12.4438ZM82.563 12.4438C82.563 11.4677 82.1245 10.8969 81.355 10.8969C80.5825 10.8969 80.148 11.4677 80.148 12.4438C80.148 13.4277 80.5826 13.9941 81.355 13.9941C82.1245 13.9941 82.563 13.4238 82.563 12.4438Z" fill="white"/>
<path id="Vector_20" d="M84.6694 10.1938H85.5249V10.9091H85.5913C85.704 10.6522 85.894 10.4368 86.1348 10.293C86.3757 10.1492 86.6555 10.0841 86.9351 10.1068C87.1542 10.0904 87.3742 10.1234 87.5788 10.2035C87.7834 10.2836 87.9673 10.4087 88.117 10.5696C88.2667 10.7304 88.3783 10.9229 88.4435 11.1327C88.5087 11.3425 88.5258 11.5643 88.4937 11.7816V14.6966H87.605V12.0048C87.605 11.2812 87.2905 10.9213 86.6333 10.9213C86.4846 10.9144 86.336 10.9397 86.198 10.9955C86.0599 11.0514 85.9356 11.1364 85.8335 11.2448C85.7313 11.3532 85.6539 11.4823 85.6063 11.6235C85.5588 11.7646 85.5423 11.9143 85.5581 12.0624V14.6967H84.6694V10.1938Z" fill="white"/>
<path id="Vector_21" d="M93.5151 9.07312V10.2147H94.4907V10.9633H93.5151V13.2787C93.5151 13.7504 93.7095 13.9569 94.1519 13.9569C94.2651 13.9565 94.3783 13.9497 94.4907 13.9364V14.6766C94.3311 14.7052 94.1694 14.7204 94.0073 14.722C93.019 14.722 92.6255 14.3744 92.6255 13.5062V10.9632H91.9106V10.2147H92.6255V9.07312H93.5151Z" fill="white"/>
<path id="Vector_22" d="M95.7046 8.4364H96.5854V10.9179H96.6558C96.7739 10.6585 96.9691 10.4419 97.2148 10.2976C97.4605 10.1532 97.7447 10.0882 98.0288 10.1112C98.2467 10.0994 98.4646 10.1357 98.6669 10.2178C98.8692 10.2998 99.0508 10.4255 99.199 10.5858C99.3471 10.7462 99.458 10.9372 99.5238 11.1454C99.5896 11.3535 99.6086 11.5736 99.5795 11.7899V14.6972H98.69V12.0092C98.69 11.2899 98.355 10.9257 97.7271 10.9257C97.5743 10.9131 97.4207 10.9341 97.2769 10.9872C97.1332 11.0402 97.0027 11.1241 96.8947 11.2328C96.7867 11.3415 96.7038 11.4726 96.6517 11.6167C96.5997 11.7608 96.5797 11.9146 96.5933 12.0673V14.6971H95.7046L95.7046 8.4364Z" fill="white"/>
<path id="Vector_23" d="M104.761 13.4813C104.641 13.8928 104.379 14.2488 104.022 14.4869C103.666 14.7251 103.236 14.8302 102.81 14.784C102.513 14.7918 102.219 14.735 101.946 14.6175C101.674 14.5 101.43 14.3245 101.232 14.1034C101.034 13.8823 100.887 13.6207 100.8 13.3369C100.713 13.0531 100.689 12.7538 100.73 12.4598C100.69 12.1649 100.715 11.865 100.801 11.5803C100.888 11.2956 101.034 11.0329 101.231 10.8098C101.428 10.5867 101.671 10.4085 101.942 10.2873C102.214 10.1661 102.509 10.1047 102.806 10.1073C104.059 10.1073 104.815 10.9633 104.815 12.3773V12.6873H101.635V12.7371C101.621 12.9024 101.642 13.0687 101.696 13.2255C101.75 13.3822 101.837 13.5259 101.95 13.6474C102.062 13.7688 102.2 13.8654 102.352 13.9308C102.504 13.9962 102.669 14.029 102.834 14.0271C103.047 14.0527 103.262 14.0144 103.453 13.9172C103.644 13.82 103.801 13.6682 103.906 13.4812L104.761 13.4813ZM101.635 12.0301H103.91C103.921 11.879 103.9 11.7272 103.849 11.5845C103.798 11.4417 103.718 11.3113 103.614 11.2014C103.509 11.0915 103.383 11.0047 103.243 10.9466C103.103 10.8884 102.953 10.8601 102.801 10.8636C102.648 10.8617 102.495 10.8905 102.353 10.9485C102.21 11.0064 102.081 11.0923 101.972 11.201C101.864 11.3097 101.778 11.4391 101.72 11.5815C101.662 11.7239 101.633 11.8764 101.635 12.0301H101.635Z" fill="white"/>
</g>
</g>
</g>
</svg>
